#!OML:ASF F:\VICON\USERDATA\INSTALL\rory3\rory3.ASF
:FULLY-SPECIFIED
:DEGREES
254
root 0.433345 18.1916 15.7022 -5.08818 -0.707113 -5.18893
lowerback 9.37057 0.143687 3.60311
upperback 1.22499 0.700121 3.29635
thorax -3.98215 0.314296 1.31144
lowerneck -16.1596 -3.23625 -1.14038
upperneck 17.7384 -4.19299 0.114037
head 8.19388 -2.05179 -0.265152
rclavicle -1.95554e-014 -6.75868e-015
rhumerus -33.3164 -12.8485 -79.2468
rradius 26.6925
rwrist 4.27106
rhand -14.4868 19.696
rfingers 7.12502
rthumb 11.6597 -9.9596
lclavicle -1.95554e-014 -6.75868e-015
lhumerus -35.1821 -2.15954 84.22
lradius 31.8196
lwrist 0.895748
lhand -23.0012 29.444
lfingers 7.12502
lthumb 3.44199 59.396
rfemur -12.0134 3.52219 31.6278
rtibia 28.7134
rfoot -10.6441 -2.77249
rtoes -4.17807
lfemur -14.8623 1.74881 -13.6394
ltibia 68.6713
lfoot 5.57626 -12.992
ltoes -12.9329
255
root 0.430834 18.1998 15.8552 -5.15965 -0.914605 -4.90302
lowerback 9.32484 0.295065 3.43306
upperback 1.42446 0.866559 3.18053
thorax -3.7487 0.401832 1.26485
lowerneck -16.4403 -3.23457 -1.17585
upperneck 17.8713 -4.17608 0.099944
head 8.2888 -2.04559 -0.2686
rclavicle -2.28105e-014 -4.77083e-015
rhumerus -32.8276 -12.4724 -79.4995
rradius 27.0951
rwrist 4.04595
rhand -14.7408 18.9469
rfingers 7.12502
rthumb 11.4147 -10.7224
lclavicle -2.28105e-014 -4.77083e-015
lhumerus -35.0236 -2.04777 84.3062
lradius 31.6727
lwrist 0.845175
lhand -22.0711 30.2803
lfingers 7.12502
lthumb 4.34008 60.2158
rfemur -11.4297 3.51556 31.3786
rtibia 28.949
rfoot -11.3054 -2.79284
rtoes -4.5715
lfemur -15.8239 1.87575 -13.983
ltibia 68.7452
lfoot 4.49562 -12.1914
ltoes -15.9677
256
root 0.434508 18.1641 16.0009 -5.1738 -1.27219 -4.95086
lowerback 9.3451 0.402239 3.66306
upperback 1.47264 1.02682 3.09092
thorax -3.70355 0.478377 1.02268
lowerneck -16.4128 -3.2375 -1.13183
upperneck 17.9857 -4.19575 0.112163
head 8.3218 -2.0502 -0.274857
rclavicle 2.19906e-015 3.97569e-015
rhumerus -32.3771 -12.045 -79.8428
rradius 27.077
rwrist 3.61306
rhand -14.5692 18.0254
rfingers 7.12502
rthumb 11.5802 -11.6347
lclavicle 2.19906e-015 3.97569e-015
lhumerus -35.3208 -2.0011 84.3007
lradius 31.8961
lwrist 1.09525
lhand -21.734 30.9443
lfingers 7.12502
lthumb 4.66561 60.873
rfemur -11.1164 3.51733 31.492
rtibia 29.5271
rfoot -12.1112 -2.74751
rtoes -4.91932
lfemur -15.8544 1.83194 -13.786
ltibia 68.9807
lfoot 2.33695 -10.5039
ltoes -16.4294
257
root 0.437911 18.0879 16.1384 -5.16761 -1.56958 -5.03375
lowerback 9.60599 0.519922 3.89301
upperback 1.23291 1.23062 3.00484
thorax -4.09054 0.568894 0.776173
lowerneck -16.0119 -3.2554 -1.32798
upperneck 18.2921 -4.2486 0.430799
head 8.36621 -2.05617 -0.139152
rclavicle 1.28962e-014 -2.14687e-014
rhumerus -32.506 -11.645 -79.9577
rradius 27.2488
rwrist 3.52575
rhand -15.1827 18.5076
rfingers 7.12502
rthumb 10.9885 -11.1848
lclavicle 1.28962e-014 -2.14687e-014
lhumerus -36.0488 -2.20475 84.4042
lradius 32.2138
lwrist 1.71465
lhand -21.8938 31.591
lfingers 7.12502
lthumb 4.51127 61.5229
rfemur -11.0951 3.57741 31.6566
rtibia 30.3935
rfoot -12.9052 -2.71385
rtoes -4.46896
lfemur -14.8692 1.50959 -13.3406
ltibia 69.3926
lfoot -1.59244 -8.61195
ltoes -17.353
258
root 0.433091 18.0923 16.2968 -5.26708 -1.84505 -4.90065
lowerback 9.68815 0.690074 3.86083
upperback 1.24899 1.45283 2.90203
thorax -4.11439 0.678349 0.657533
lowerneck -15.8439 -3.2613 -1.41306
upperneck 18.3899 -4.26183 0.536716
head 8.37384 -2.05771 -0.0895401
rclavicle 7.76503e-015 -1.07344e-014
rhumerus -32.3598 -11.1067 -80.1758
rradius 27.7265
rwrist 2.86482
rhand -14.77 18.4004
rfingers 7.12502
rthumb 11.3866 -11.2705
lclavicle 7.76503e-015 -1.07344e-014
lhumerus -36.2235 -2.41134 84.5735
lradius 32.1341
lwrist 2.26986
lhand -21.9103 31.2331
lfingers 7.12502
lthumb 4.49534 61.1654
rfemur -10.6922 3.6979 31.585
rtibia 31.0079
rfoot -13.6912 -2.60846
rtoes -3.50494
lfemur -15.8847 1.76294 -13.5145
ltibia 69.3035
lfoot -2.96067 -7.78856
ltoes -18.5501
259
root 0.427756 18.0844 16.438 -5.15286 -2.08071 -4.89935
lowerback 9.5611 0.815788 3.90708
upperback 1.35983 1.60924 2.85652
thorax -3.92274 0.758274 0.566671
lowerneck -15.8958 -3.20821 -1.36077
upperneck 18.3037 -4.19222 0.504758
head 8.35141 -2.02448 -0.100471
rclavicle -1.28092e-014 -1.15295e-014
rhumerus -31.7446 -10.5428 -80.5189
rradius 27.9852
rwrist 1.86333
rhand -13.5041 17.5888
rfingers 7.12502
rthumb 12.6072 -12.0108
lclavicle -1.28092e-014 -1.15295e-014
lhumerus -36.136 -2.58147 84.7339
lradius 32.1358
lwrist 2.80887
lhand -22.2888 30.5042
lfingers 7.12502
lthumb 4.12988 60.4439
rfemur -10.4934 3.83304 31.6494
rtibia 31.4462
rfoot -14.3228 -2.63063
rtoes -1.5133
lfemur -17.1561 1.93108 -13.5193
ltibia 69.0959
lfoot -3.90009 -7.08204
ltoes -20.0272
